<svg width="44" height="56" fill="none" xmlns="http://www.w3.org/2000/svg"><g clip-path="url(#clip0_104792_379)"><path d="M25.455 2.254a14.54 14.54 0 00-6.232-1.016 10.813 10.813 0 00-4.272 1.326c-.698.418-1.4.887-1.869 1.568l.02.168c.323-.291.6-.628.939-.9.619-.499 1.336-.864 2.083-1.13 1.186-.422 2.412-.819 3.686-.811 1.691-.01 3.449.184 4.963.989.45.244.855.555 1.259.865.78.578 1.587 1.186 2.015 2.086l.436.032c-.065.133-.13.267-.198.399.904 1.75 1.631 3.71 3.223 4.974.57.367 1.118.773 1.725 1.08.658.272 1.344.47 2.008.728 1.148.412 2.27.89 3.38 1.394.616.315 1.245.61 1.905.826-.33.102-.663.2-.98.34-.33.145-.606.381-.92.556-.413.55-.512 1.327-.15 1.928.392.644 1.013 1.133 1.673 1.479.435-.189.838-.459 1.302-.58.23-.035.466.063.69-.004.237-.095.326-.35.396-.571-.274.113-.504.301-.713.508a31.724 31.724 0 00-.232-.353c-.424.279-.927.396-1.36.656-.577-.283-1.19-.607-1.515-1.188-.204-.384-.366-.857-.173-1.277.24-.645.929-.935 1.541-1.116.453-.153.956-.162 1.373-.415-.647-.174-1.29-.374-1.886-.683a43.49 43.49 0 00-2.747-1.223c-1.204-.5-2.46-.87-3.635-1.443-.749-.32-1.125-1.09-1.604-1.699-1.113-1.437-1.489-3.282-2.542-4.757-.902-1.231-2.172-2.178-3.59-2.736z" fill="#E0DEDA"/><path d="M14.265 4.833c-.17.019-.342.035-.513.062-.732.307-1.433.702-2.029 1.232l.117.109.208-.177c.357-.293.798-.45 1.211-.645.353-.162.678-.376 1.006-.58zm11.573 4.125c-.025-.24-.19-.437-.385-.566-.3.314-.465.718-.593 1.126.383-.05.815-.169.978-.56zm1.596 1.564c.053-.517.049-1.097-.3-1.517.008.403.103.82-.035 1.212-.172.59-.556 1.185-1.165 1.385-.562.124-1.142-.062-1.655-.29-.453-.204-.768-.596-1.136-.913.189.757.896 1.245 1.617 1.432.59.164 1.307.232 1.811-.184.364-.3.734-.657.863-1.125zm12.423 4.332c-.34.014-.684-.017-1.023.026-.139.102-.249.238-.366.365.47-.103.935-.232 1.39-.39zm2.396.781c-.442-.153-1.063-.083-1.305.367-.153.666.1 1.358.447 1.923-.135-.38-.385-.748-.329-1.169.024-.409.3-.845.734-.894.435-.04.837.157 1.2.371-.09-.348-.416-.536-.747-.598zm-8.499 2.707c-.563.277-1.114.576-1.689.829.51-.074.995-.266 1.445-.508.134-.058.178-.206.244-.321zm7.729.558c-.276.05-.28.364-.35.581-.21.882-.382 1.821-.966 2.547-.652.878-1.659 1.38-2.63 1.823-1.654.731-3.438 1.322-5.271 1.162-2.301.003-4.504-.915-6.811-.802-.76-.01-1.533.165-2.161.605-.785.52-1.286 1.338-1.759 2.129a4.322 4.322 0 00-.448 1.214c.437-.475.6-1.126 1.003-1.628.562-.922 1.416-1.723 2.508-1.93 1.74-.293 3.48.163 5.176.513 1.571.34 3.213.41 4.793.092 1.612-.3 3.145-.956 4.55-1.793.864-.508 1.452-1.38 1.779-2.312.244-.72.42-1.463.587-2.202z" fill="#E0DEDA"/><path d="M25.37 1.33a26.984 26.984 0 00-3.417-.64c-2.178-.206-4.417.04-6.455.858-.863.392-1.73.815-2.461 1.428-.275.208-.499.473-.771.683-.327.116-.687.07-1.024.148-.67.142-1.339.349-1.923.714-.166.096-.28.253-.388.41.302.018.573-.12.837-.243.732-.343 1.556-.405 2.354-.41.323-.01.668.02.96-.146.468-.68 1.171-1.15 1.869-1.568a10.814 10.814 0 014.272-1.326 14.541 14.541 0 016.232 1.016c1.417.558 2.687 1.505 3.59 2.736 1.052 1.475 1.428 3.32 2.541 4.757.48.609.855 1.38 1.604 1.699 1.174.572 2.43.944 3.635 1.443a43.73 43.73 0 012.747 1.223c.597.31 1.24.509 1.885.683-.416.253-.92.262-1.372.415-.612.18-1.301.47-1.542 1.116-.192.42-.03.893.174 1.277.325.58.938.905 1.514 1.188.434-.26.937-.377 1.36-.656.079.117.157.235.233.353.209-.207.44-.395.713-.508-.07.221-.159.476-.395.57-.225.068-.462-.03-.691.006-.464.12-.867.39-1.302.579-.66-.346-1.28-.835-1.673-1.479-.362-.601-.264-1.379.15-1.928-.313.055-.526.298-.765.485-.233.19-.531.264-.813.353.296-.372.59-.75.805-1.176-.616.182-1.152.569-1.788.689.33-.395.758-.683 1.155-1.002-.64-.145-1.294-.228-1.942-.332.187-.348.48-.615.803-.834a15.08 15.08 0 00-1.829.01c.061-.082.123-.165.182-.247-.608.013-1.215.117-1.825.057.54-.486 1.326-.394 1.996-.486-.48-.202-.94-.498-1.471-.542-.205-.022-.41-.039-.615-.059.362-.329.864-.317 1.322-.335-.2-.146-.399-.293-.608-.425-.607-.307-1.155-.713-1.725-1.08-1.592-1.264-2.319-3.223-3.223-4.974a13.416 13.416 0 00-.238-.431c-.428-.9-1.236-1.508-2.015-2.086l-.298.057c.185.84.994 1.328 1.271 2.127-.512-.332-.836-.874-1.345-1.21a2.872 2.872 0 00-1.698-.586c.328.402.775.68 1.123 1.061.149.15.168.367.213.563a8.607 8.607 0 00-1.368.131c.255.129.514.248.776.364l.071.226c-.231-.02-.463-.04-.695-.058.323.143.645.295.927.51-.734.047-1.482.029-2.188.27.295.024.588.07.876.136-.009.35-.278.547-.563.69.797.062 1.599.07 2.392.17.421.05.796.264 1.13.513-.492-.064-1.015-.3-1.498-.082-.974.477-1.464 1.558-2.43 2.045-.452.238-.89.527-1.386.67-.184.059-.371-.026-.553-.059.33-.2.672-.38.996-.59-.35 0-.698.005-1.048.014.166-.29.23-.618.224-.95.412-.379.927-.692 1.17-1.216l-.093-.094c-.754.321-1.149 1.128-1.886 1.465.223-.488.697-.796.926-1.281.224-.467.576-.884.642-1.413-.61.027-1.159.301-1.71.536.165-.238.333-.474.486-.72-.339.139-.637.355-.954.535-.144.1-.382.049-.44-.126.009-.265.083-.522.13-.781-.21.254-.422.506-.657.737.213-.723.725-1.286 1.13-1.903-.156-.079-.314-.33-.506-.206-.52.261-.915.715-1.252 1.178-.478.658-.575 1.488-.747 2.261-.213.967-.224 1.966-.13 2.948.09.884.425 1.712.633 2.57.392 1.572.98 3.088 1.678 4.548.79 1.609 1.084 3.423 1.061 5.205.025 1.656-.735 3.24-1.82 4.459-.61.647-1.318 1.23-2.16 1.544-.978.374-2.027.63-3.08.544-1.748-.131-3.488-.847-4.694-2.145-.89-1.01-1.426-2.28-1.79-3.563-.39-1.44-.647-2.91-.998-4.36-.247-1.039-.534-2.105-.382-3.182.2-2.405 1.362-4.565 2.12-6.818-.417.65-.6 1.42-1.053 2.047-.63.886-1.227 1.8-1.704 2.777-.536 1.105-.606 2.388-.397 3.584.34 1.485 1.171 2.814 1.42 4.327-1.177-.789-2.18-1.874-2.758-3.177-.393-.86-.385-1.848-.174-2.753.136-.602.456-1.136.775-1.656.423-.699.914-1.353 1.386-2.02.536-.757 1.174-1.437 1.683-2.214.532-.79.912-1.67 1.233-2.562.24-.676.686-1.245 1.05-1.856-.112.74-.328 1.5-.116 2.242.079.354.284.659.502.942.697-1.224 1.174-2.629 2.239-3.601.595-.53 1.296-.925 2.028-1.232-.142-.084-.287-.19-.463-.182-1.093-.015-2.195-.022-3.277.18-.543.07-1.044.308-1.514.58-.462.287-.943.637-1.128 1.175-.211.576-.326 1.187-.613 1.735-.725 1.672-1.83 3.134-2.864 4.624-.852 1.25-1.818 2.47-2.282 3.932-.383 1.29.087 2.642.693 3.784a8.507 8.507 0 002.382 2.645c-.176 1.227-.53 2.421-.796 3.631-.322 1.408-.643 2.819-1.078 4.198-.509 1.694-1.56 3.168-2.036 4.874a6.563 6.563 0 00.08 4.186c.522 1.451 1.42 2.756 2.523 3.828.883.756 1.819 1.52 2.94 1.883-.327-.382-.8-.59-1.151-.945-1.136-1.107-2.21-2.347-2.774-3.851-.566-1.422-.819-3.017-.447-4.521.23-.887.667-1.697 1.084-2.506.483-.956.955-1.917 1.43-2.875.311 1.063.667 2.127 1.26 3.071.832 1.286 1.993 2.327 3.263 3.167.797.518 1.581 1.062 2.276 1.712.35.303.666.65 1.057.904-.503-1.127-1.424-2.006-1.981-3.106-.309-.612-.763-1.182-.854-1.877.57.942 1.146 1.889 1.862 2.73 1.309 1.542 2.668 3.041 4.022 4.544.615.72 1.286 1.4 1.798 2.201.111.172.25.323.397.463-.365-1.19-.938-2.31-1.596-3.363-.543-.887-1.045-1.823-1.242-2.855-.11-.617-.233-1.239-.233-1.868.306.783.376 1.65.8 2.39.699 1.412 1.892 2.517 2.534 3.962.398.88.494 1.852.586 2.8.031.192.024.43.215.544.372-1.246.59-2.55.534-3.852-.138-1.355-.641-2.63-1.06-3.914-.59-2.614-.401-5.48.888-7.865 0 .588-.166 1.158-.247 1.737-.146.946-.285 1.911-.145 2.866.095-.277.13-.588.318-.822.277-.36.629-.653.994-.918.422.56.74 1.209 1.256 1.694-.06-.803-.213-1.6-.18-2.41-.109-1.728.797-3.343 1.931-4.58 1.053-1.209 2.527-2.074 4.136-2.242-.08.98-.32 1.945-.383 2.93-.02 1.666-.014 3.395.647 4.956.248.54.503 1.084.873 1.552.114.14.208.3.222.485.318 2.162.465 4.346.536 6.53a16.863 16.863 0 01-.68 6.007c-.288 1.256-1.065 2.436-.88 3.769.273-.315.445-.697.65-1.054.89-1.59 1.656-3.268 2.072-5.047.385-1.546.46-3.155.33-4.738-.056-.352-.056-.708-.083-1.061.452 1.141 1.012 2.237 1.438 3.39.042.142.126.267.27.32.129-.419.056-.854-.04-1.27-.278-1.213-.577-2.442-1.194-3.536-.47-.91-1.07-1.745-1.565-2.642.926.651 1.782 1.497 2.905 1.791-.311-.55-.81-.949-1.215-1.423a11.778 11.778 0 01-2.36-3.872 9.704 9.704 0 01-.482-3.674c.08-1.16.248-2.316.474-3.456 1.679-.036 3.358.075 5.035 0 1.834-.187 3.667-.605 5.32-1.442.716-.39 1.42-.832 1.968-1.446.551-.578.85-1.333 1.184-2.045.463-1.006.688-2.1.804-3.197.03-.233.024-.487.164-.688.247-.38.483-.79.513-1.25-.055-.441-.325-.83-.66-1.111-.341-.285-.775-.407-1.165-.604-1.233-.62-2.43-1.318-3.727-1.803-1.56-.6-3.14-1.152-4.646-1.882-.077-.872.128-1.729.203-2.592l-.276-.148c-.216.015-.502-.057-.632.171-.261.368-.368.819-.609 1.2-.027-.398.016-.794.072-1.186-.13-.093-.259-.184-.39-.274.04-.168.074-.34.136-.501.113-.086.245-.144.368-.21a6.019 6.019 0 00-.011-.375c-.26-.792-.586-1.576-1.018-2.292-.552-.918-1.4-1.6-2.236-2.243-.424-.297-.815-.645-1.27-.895.053.189.116.377.174.565-.841-.247-1.664-.552-2.516-.763zm4.269 2.87c.314.314.618.655.78 1.076-.313-.273-.553-.616-.85-.906-.354-.362-.753-.677-1.096-1.05.44.219.817.538 1.166.88zm-3.8 4.758c-.164.391-.596.51-.979.56-.36-.072-.273-.537.02-.64.02-.109.04-.218.069-.324.151-.095.335-.115.504-.162.194.13.36.326.385.566zm1.595 1.564c-.13.468-.499.825-.863 1.125-.504.416-1.222.348-1.811.184-.72-.187-1.428-.675-1.617-1.432.368.317.683.71 1.136.914.513.227 1.093.413 1.655.29.609-.201.993-.797 1.165-1.386.138-.393.043-.81.035-1.212.349.42.353 1 .3 1.517zm14.819 5.113c.331.062.658.25.747.598-.363-.214-.765-.41-1.2-.371-.433.05-.71.485-.734.894-.056.42.194.79.33 1.169-.347-.566-.601-1.258-.448-1.923.242-.45.863-.52 1.305-.367zm-17.256 2.758c-.373.18-.763.383-1.191.365-.391.018-.779-.09-1.169-.057-.335.106-.635.304-.98.385.416-.374.916-.64 1.39-.931.634-.192 1.445-.301 1.95.238zm8.757-.051c-.066.115-.11.263-.244.32-.45.243-.936.435-1.445.509.575-.253 1.126-.552 1.689-.83zm7.729.557c-.168.739-.343 1.483-.587 2.202-.327.931-.915 1.804-1.78 2.312-1.404.837-2.937 1.492-4.55 1.793-1.58.318-3.221.247-4.792-.092-1.695-.35-3.437-.806-5.176-.512-1.092.206-1.946 1.007-2.508 1.929-.403.502-.567 1.153-1.003 1.628.093-.422.233-.838.448-1.214.473-.79.974-1.61 1.759-2.13.628-.439 1.401-.613 2.16-.604 2.308-.113 4.51.805 6.812.802 1.832.16 3.617-.43 5.27-1.162.972-.442 1.979-.945 2.63-1.823.585-.726.756-1.665.966-2.547.071-.217.075-.53.35-.582zm-16.129.184c-.43.184-.902.212-1.353.319-.533.121-1.048.326-1.596.38.102-.14.206-.291.383-.334.461-.153.936-.26 1.41-.366.38-.066.787-.17 1.156.001zm-.404.494l-.037.252c-.248.062-.793.15-.795-.218.263-.128.559-.12.832-.034z" fill="#3E2822"/><path d="M19.495 4.202c-.248-.328-.68-.291-1.042-.25-1.135.155-2.277.467-3.233 1.12-.858.577-1.59 1.33-2.222 2.145-.814 1.24-1.514 2.593-1.784 4.064-.289 1.767.374 3.605 1.556 4.92.498.573 1.257.929 1.546 1.666.336.732.653 1.564.417 2.374-.286.983-.751 1.935-1.448 2.692-.163-.602.043-1.211.184-1.795l-.313.304c-.312-.25-.139-.657-.088-.985l-.375.386c-.133-1.622-1.15-2.951-1.665-4.45-.308-1.017-.413-2.082-.5-3.138-.028-.619-.036-1.247.092-1.857.194-1.125.724-2.152 1.254-3.15a9.066 9.066 0 011.813-2.383c.37-.355.84-.597 1.16-1.003-.404.126-.763.357-1.15.53-.507.237-1.059.463-1.394.938-.888 1.165-1.507 2.55-1.734 3.998-.088.878-.325 1.743-.275 2.631.05.962-.095 1.95.223 2.88.136.675.45 1.321.45 2.019-.259-.267-.33-.64-.442-.98-.408-1.338-.852-2.704-.826-4.118-.006-.602.205-1.18.199-1.781-.235.39-.254.853-.332 1.29-.144.904-.367 1.813-.292 2.736.223 1.807 1.029 3.513 1.024 5.351.014.834-.24 1.635-.41 2.443-.127.612-.35 1.21-.366 1.84-.01.335 0 .672-.039 1.007-.1-.156-.188-.324-.19-.514-.079-.777.233-1.506.387-2.251.132-.84.404-1.664.375-2.524.028-1.15-.368-2.243-.638-3.345-.164-.638-.242-1.294-.384-1.937-.288-.157-.566-.37-.662-.7-.231-.725-.014-1.496-.145-2.235-.1.182-.166.38-.204.584a9.594 9.594 0 00-.193-.142c-.193.492-.364 1.005-.344 1.541-.008.757-.058 1.527.134 2.267.292 1.27.431 2.572.532 3.869-.037.76.167 1.503.14 2.26-.237-.384-.343-.83-.394-1.274-.068-.524-.151-1.045-.186-1.572-.07-1.285-.38-2.538-.52-3.814-.159-1.303.012-2.613.071-3.916-.55.952-.824 2.029-1.175 3.063-.246.945-.513 1.913-.45 2.899.285 1.532.755 3.023 1.234 4.504.497 1.481.984 2.988 1.788 4.337.923 1.54 2.659 2.395 4.38 2.683 1.108.164 2.197-.186 3.227-.553 1.123-.382 1.932-1.323 2.574-2.278.722-1.052.923-2.361.933-3.612.039-1.418-.261-2.832-.8-4.14-.406-1.038-.962-2.012-1.313-3.072-.363-.996-.724-1.995-.964-3.03a11.307 11.307 0 01.143-5.371c.238-.86.61-1.721 1.29-2.323.396-.374.932-.531 1.366-.848zM14.047 7.88c-.147.538-.42 1.03-.575 1.566-.088.311-.18.626-.346.907-.049-.656.174-1.292.442-1.879.103-.238.265-.446.479-.594zm.408 1.637c.045.532-.014 1.066.015 1.598.037.783.174 1.558.276 2.335.139 1.12.557 2.175.828 3.264.327 1.376.605 2.796.437 4.214-.108.956-.28 1.928-.72 2.793a.975.975 0 01-.434.447c.095-.341.25-.66.37-.992.535-1.582.575-3.296.323-4.935-.187-1.034-.363-2.074-.671-3.08a18.744 18.744 0 01-.727-4.046c-.024-.542-.049-1.146.303-1.598zm3.316 11.217c.083.813.017 1.632-.096 2.438-.018.198-.1.381-.208.547a3.907 3.907 0 01-.003-.833c.074-.85.127-1.7.164-2.552.08.12.137.254.143.4zm-2.565.587c-.02.791-.174 1.653-.728 2.256.22-.758.444-1.52.728-2.256z" fill="#3E2822"/><path d="M11.525 7.008c.187-.309.524-.558.523-.95l-.208.178c-.85.932-1.463 2.049-2.005 3.18-.317.703-.417 1.476-.59 2.223-.172.9-.434 1.801-.37 2.728.244-.66.275-1.37.447-2.048.221-1.343.625-2.67 1.329-3.843.303-.482.565-.99.874-1.468zm21.923.39c-.317-.13-.635-.258-.95-.393.08.179.18.347.288.51l-.311.038c.375.209.767.387 1.177.516.245.08.492.15.74.217-.28-.326-.521-.73-.944-.888zM8.776 11.1c-.059.984-.337 1.957-.218 2.947.124-.381.115-.785.157-1.18.062-.586.086-1.177.061-1.767zm-4.071 9.37c-.164-.5-.383-.996-.75-1.382.077.529.33 1.043.75 1.381zM26.6 28.167c-1.263.145-2.381.868-3.216 1.8-1.114 1.312-1.615 3.098-1.501 4.8.237 1.572.916 3.048 1.765 4.38-.025-1.995.064-4.058.867-5.915.35-.894.828-1.73 1.363-2.524.257-.422.582-.831.656-1.334-.33.23-.597.536-.878.822-.573.602-1.15 1.222-1.515 1.978-.366.755-.672 1.548-.832 2.376-.192.909-.197 1.843-.247 2.768-.422-.985-.461-2.089-.393-3.144.168-1.12.433-2.251 1.006-3.24.724-1.149 1.77-2.066 2.925-2.767zM6.89 37.46a9.128 9.128 0 01-2.496-3.768c-.011.841-.044 1.687.082 2.523.233 1.95 1.235 3.757 2.614 5.134a27.862 27.862 0 003.371 2.86c1.672 1.182 3.285 2.444 5.008 3.553 1.242.765 2.422 1.645 3.446 2.687.458.449.95.864 1.376 1.345.137.153.29.292.468.398-.14-.705-.477-1.354-.837-1.97a23.555 23.555 0 00-3.58-4.404c-.686-.676-1.335-1.39-2.023-2.064-1.018-.962-1.977-1.992-3.097-2.84-1.436-1.16-2.949-2.228-4.332-3.454z" fill="#3E2822"/><path d="M3.29 35.716c-.258.163-.284.49-.347.762-.197 1.285.15 2.576.573 3.781.555 1.477 1.516 2.775 2.682 3.829a20.459 20.459 0 003.769 2.667c1.475.776 2.95 1.564 4.497 2.193.129.048.263.081.396.112-.233-.304-.609-.433-.934-.614-1.323-.648-2.578-1.426-3.799-2.25-1.98-1.413-3.977-2.99-5.127-5.188-.532-.932-.99-1.916-1.239-2.963-.203-.767-.288-1.558-.472-2.33zm16.975 3.846a.938.938 0 00-.394-.37c.01.397.11.784.19 1.171.224 1.045.415 2.098.52 3.161.22 2.041-.052 4.091.067 6.135.33-1.204.705-2.409.774-3.663.148-1.25.007-2.513-.194-3.748a7.15 7.15 0 00-.963-2.686zm6.595 2.364a2.164 2.164 0 00-.689-.78c.13.661.401 1.292.45 1.97.056.736.166 1.479.057 2.216-.155 1.398-.682 2.716-1.084 4.054a6.634 6.634 0 00-.317 2.414c.07 1.641.863 3.314 2.284 4.2a20.476 20.476 0 01-.785-2.96c-.08-1.108-.054-2.247.293-3.313.459-1.44.9-2.927.786-4.456.025-1.19-.43-2.32-.995-3.345z" fill="#3E2822"/><path d="M24.773 2.448c-1.514-.805-3.272-1-4.963-.99-1.274-.007-2.5.39-3.686.813-.747.265-1.464.63-2.083 1.129-.339.272-.616.609-.938.9l-.02-.168c-.293.166-.638.136-.961.146-.797.005-1.622.067-2.354.41-.264.123-.535.261-.837.243l-.068.002a2.28 2.28 0 00-.365.54c.47-.272.971-.51 1.514-.58 1.082-.202 2.184-.195 3.278-.18.175-.008.32.098.462.182.171-.027.342-.043.513-.062-.328.205-.653.419-1.006.581-.413.194-.854.352-1.211.645 0 .391-.336.64-.523.949-.309.479-.571.986-.874 1.468-.704 1.173-1.108 2.5-1.329 3.843-.172.677-.203 1.389-.447 2.048-.063-.927.198-1.828.37-2.729.173-.746.273-1.519.59-2.221.542-1.132 1.155-2.249 2.005-3.181l-.117-.11c-1.064.973-1.541 2.378-2.238 3.602-.218-.283-.423-.588-.502-.942-.211-.742.004-1.503.117-2.242-.365.61-.81 1.18-1.05 1.856-.322.893-.702 1.773-1.234 2.562-.509.777-1.147 1.457-1.683 2.214-.472.667-.963 1.321-1.386 2.02-.319.52-.639 1.054-.775 1.656-.21.905-.22 1.893.174 2.753.578 1.303 1.58 2.388 2.758 3.177-.249-1.513-1.08-2.842-1.42-4.327-.209-1.196-.139-2.478.397-3.584.477-.977 1.074-1.891 1.704-2.777.453-.627.636-1.398 1.054-2.047-.76 2.253-1.92 4.413-2.121 6.818-.152 1.078.135 2.143.382 3.183.35 1.449.609 2.92.999 4.36.363 1.283.898 2.552 1.789 3.562 1.206 1.298 2.946 2.014 4.694 2.145 1.053.085 2.102-.17 3.08-.544.842-.314 1.55-.897 2.16-1.544 1.085-1.219 1.845-2.803 1.82-4.459.023-1.782-.27-3.596-1.06-5.205-.699-1.46-1.287-2.976-1.679-4.548-.208-.858-.544-1.686-.632-2.57-.095-.982-.084-1.981.13-2.948.17-.773.268-1.603.746-2.26.338-.464.732-.918 1.252-1.18.192-.124.35.128.506.207-.405.617-.917 1.18-1.13 1.903.235-.23.447-.483.658-.737-.048.259-.122.516-.131.78.058.176.296.226.44.127.317-.18.615-.396.954-.534-.153.245-.321.48-.486.719.551-.235 1.1-.509 1.71-.536-.066.53-.418.946-.642 1.413-.229.485-.703.793-.926 1.28.737-.336 1.132-1.143 1.886-1.464l.093.094c-.243.524-.758.837-1.17 1.216.007.332-.058.66-.224.95.35-.009.699-.015 1.048-.014-.324.21-.665.39-.996.59.182.033.369.118.553.058.497-.143.934-.43 1.387-.67.965-.486 1.456-1.567 2.429-2.044.483-.219 1.006.018 1.498.082-.334-.25-.709-.463-1.13-.513-.793-.1-1.595-.108-2.392-.17.285-.143.554-.34.563-.69a6.051 6.051 0 00-.876-.137c.707-.24 1.454-.222 2.188-.268-.282-.216-.604-.368-.927-.511.232.018.464.039.695.058l-.07-.226a17.095 17.095 0 01-.777-.364c.451-.084.91-.12 1.368-.131-.045-.196-.064-.413-.213-.563-.348-.38-.795-.659-1.123-1.06.613.008 1.21.213 1.698.584.51.337.833.88 1.345 1.211-.277-.799-1.086-1.287-1.271-2.127l.298-.057c-.404-.31-.81-.62-1.259-.865zm-5.278 1.754c-.434.317-.97.474-1.365.848-.682.602-1.053 1.463-1.29 2.323a11.307 11.307 0 00-.144 5.371c.24 1.035.6 2.034.964 3.03.351 1.06.907 2.034 1.314 3.072.538 1.308.838 2.722.799 4.14-.01 1.25-.21 2.56-.933 3.612-.642.955-1.451 1.896-2.574 2.277-1.03.368-2.119.718-3.227.554-1.721-.288-3.457-1.143-4.38-2.683-.804-1.35-1.29-2.856-1.788-4.337-.48-1.481-.95-2.971-1.234-4.504-.063-.986.204-1.954.45-2.899.35-1.034.625-2.11 1.175-3.063-.06 1.303-.23 2.613-.071 3.916.14 1.276.45 2.53.52 3.814.035.527.118 1.048.186 1.572.051.445.157.89.394 1.275.027-.758-.177-1.502-.14-2.261-.1-1.297-.24-2.599-.532-3.869-.192-.74-.142-1.51-.134-2.267-.02-.536.15-1.049.344-1.541.066.046.13.094.193.142.038-.205.104-.402.204-.584.13.739-.086 1.51.145 2.235.096.33.374.543.662.7.142.643.22 1.299.384 1.937.27 1.102.666 2.196.638 3.345.029.86-.243 1.684-.375 2.524-.154.745-.466 1.474-.387 2.251.002.19.09.358.19.514.039-.335.03-.672.039-1.006.017-.631.24-1.229.366-1.84.17-.809.424-1.61.41-2.444.005-1.838-.801-3.544-1.024-5.35-.075-.924.148-1.833.292-2.737.078-.437.097-.9.332-1.29.006.601-.205 1.18-.199 1.78-.026 1.415.418 2.781.826 4.119.112.34.183.713.441.98.001-.698-.313-1.344-.45-2.02-.317-.928-.173-1.917-.222-2.879-.05-.888.187-1.753.275-2.63.227-1.45.846-2.834 1.734-3.999.335-.475.887-.7 1.394-.938.387-.173.746-.404 1.15-.53-.32.406-.79.648-1.16 1.003a9.066 9.066 0 00-1.813 2.384c-.53.997-1.06 2.024-1.254 3.15-.128.61-.12 1.237-.093 1.856.088 1.056.193 2.121.5 3.138.517 1.499 1.533 2.828 1.666 4.45l.375-.386c-.051.328-.224.734.088.985.104-.102.208-.204.313-.304-.141.584-.347 1.193-.184 1.795.697-.757 1.162-1.709 1.448-2.692.236-.81-.08-1.642-.417-2.374-.289-.737-1.048-1.093-1.546-1.666-1.182-1.315-1.845-3.153-1.556-4.92.27-1.471.97-2.824 1.784-4.064.631-.816 1.364-1.568 2.222-2.145.956-.653 2.098-.965 3.233-1.12.363-.041.794-.078 1.042.25zM8.776 11.1c.025.59.001 1.18-.06 1.768-.043.394-.034.798-.158 1.18-.12-.991.16-1.964.218-2.948zm-4.07 9.37c-.42-.339-.674-.853-.75-1.382.366.386.585.883.75 1.381zM29.639 4.2c-.349-.342-.726-.661-1.166-.88.343.373.742.688 1.096 1.05.297.29.537.633.85.906-.162-.421-.466-.762-.78-1.076zm2.831 2.746l-.234.011c.008.125.01.25.011.376-.123.065-.255.123-.368.209-.062.162-.095.333-.136.501.131.09.26.181.39.274-.056.392-.099.788-.072 1.185.24-.38.348-.831.609-1.199.13-.228.416-.156.632-.171.118-.017.235-.038.35-.063a6.335 6.335 0 01-1.177-.516c.104-.013.208-.026.311-.037a3.662 3.662 0 01-.289-.511l-.027-.059z" fill="#AF6F43"/><path d="M14.047 7.88a1.384 1.384 0 00-.48.594c-.267.587-.49 1.223-.441 1.879.167-.281.258-.596.347-.907.153-.537.427-1.028.574-1.566zm11.406.512c-.169.047-.353.067-.504.162-.03.106-.048.215-.07.324-.292.103-.378.568-.019.64.128-.408.293-.812.593-1.126zM14.455 9.517c-.352.452-.328 1.056-.303 1.598.1 1.368.33 2.73.727 4.046.309 1.006.484 2.046.671 3.08.252 1.64.212 3.353-.324 4.935-.118.332-.274.651-.37.992a.975.975 0 00.435-.447c.44-.865.612-1.837.72-2.793.168-1.419-.11-2.838-.437-4.214-.27-1.089-.69-2.145-.828-3.264-.102-.777-.239-1.552-.276-2.335-.03-.533.03-1.066-.015-1.598zm20.786 3.095c-.664-.258-1.35-.456-2.008-.728.21.132.408.28.608.425-.458.018-.96.006-1.322.335.205.02.41.037.615.06.531.043.99.339 1.471.54-.67.093-1.456 0-1.996.487.61.06 1.217-.044 1.825-.057l-.182.248a15.08 15.08 0 011.829-.01c-.323.218-.616.485-.803.833.648.104 1.301.187 1.942.332-.397.32-.826.607-1.155 1.002.636-.12 1.172-.507 1.788-.69-.216.427-.509.805-.805 1.177.282-.09.58-.163.813-.353.239-.187.452-.43.765-.485.314-.175.59-.411.92-.556.317-.14.65-.238.98-.34-.66-.216-1.289-.511-1.906-.826a44.557 44.557 0 00-3.379-1.394zm4.616 2.242c-.454.159-.918.288-1.389.392.117-.128.227-.264.366-.366.34-.043.683-.012 1.023-.026zm-14.86 3.539c-.505-.539-1.316-.43-1.95-.238-.474.292-.974.557-1.39.931.345-.08.645-.28.98-.385.39-.032.778.075 1.169.057.428.018.817-.185 1.191-.365zm.357.69c-.369-.17-.775-.067-1.156 0a14.61 14.61 0 00-1.41.365c-.177.043-.28.195-.383.333.548-.052 1.063-.258 1.595-.38.452-.106.924-.134 1.354-.318zm-.404.494c-.273-.087-.569-.094-.832.034.002.369.547.28.796.218l.035-.252zm-7.179 1.157a.791.791 0 00-.143-.4c-.038.852-.09 1.702-.164 2.552-.026.276-.03.556.003.833.109-.166.19-.349.208-.547.113-.806.18-1.625.096-2.438z" fill="#AF6F43"/><path d="M15.206 21.32c-.284.738-.507 1.499-.728 2.257.554-.603.707-1.465.728-2.256z" fill="#AF6F43"/></g><defs><clipPath id="clip0_104792_379"><path fill="#fff" transform="matrix(-1 0 0 1 44 0)" d="M0 0h44v56H0z"/></clipPath></defs></svg>