<svg width="44" height="56" viewBox="0 0 44 56" fill="none" xmlns="http://www.w3.org/2000/svg">
<g clip-path="url(#clip0_104792_379)">
<path d="M25.4547 2.25411C23.4848 1.46478 21.3416 1.11439 19.2227 1.238C17.7287 1.37231 16.261 1.83365 14.951 2.56362C14.2531 2.98213 13.5504 3.45126 13.0823 4.13158C13.0871 4.17343 13.0978 4.25811 13.1027 4.29996C13.4249 4.00895 13.7023 3.67219 14.041 3.39967C14.66 2.90135 15.3773 2.53637 16.1238 2.27066C17.3102 1.84825 18.5356 1.45115 19.8096 1.45893C21.5012 1.44823 23.259 1.64289 24.7734 2.44779C25.2221 2.69209 25.6279 3.00257 26.0319 3.31305C26.8115 3.89118 27.6193 4.49948 28.0475 5.3988C28.1926 5.40951 28.3376 5.42022 28.4826 5.43092C28.4184 5.56426 28.3532 5.6976 28.285 5.82997C29.1892 7.58091 29.9163 9.54014 31.5076 10.8044C32.0779 11.1714 32.6259 11.5772 33.2332 11.8838C33.8912 12.1563 34.5773 12.3539 35.2411 12.6118C36.3886 13.0235 37.5108 13.5014 38.6204 14.0056C39.2374 14.3209 39.8662 14.6158 40.526 14.8319C40.1961 14.9341 39.8632 15.0314 39.5459 15.1716C39.216 15.3166 38.9396 15.5531 38.6262 15.7283C38.2125 16.2772 38.1142 17.0549 38.4763 17.6564C38.8685 18.2997 39.4885 18.7893 40.1494 19.1348C40.5844 18.946 40.9874 18.6764 41.4507 18.5557C41.6804 18.5197 41.9169 18.618 42.1417 18.5508C42.3782 18.4564 42.4668 18.2014 42.5369 17.9795C42.2634 18.0934 42.0327 18.2812 41.8244 18.4885C41.7475 18.3698 41.6697 18.252 41.5918 18.1352C41.1684 18.4136 40.6652 18.5314 40.2311 18.7912C39.655 18.508 39.0418 18.1839 38.7167 17.6028C38.5133 17.2194 38.3508 16.7464 38.5435 16.3259C38.7839 15.6806 39.473 15.3906 40.0851 15.2105C40.5377 15.0567 41.0409 15.048 41.4575 14.7949C40.8112 14.6207 40.1689 14.4212 39.5722 14.1117C38.6739 13.6659 37.7512 13.2717 36.8246 12.8892C35.6207 12.3899 34.3642 12.0181 33.1904 11.4458C32.441 11.1266 32.0653 10.3558 31.5864 9.74745C30.473 8.3099 30.0973 6.46455 29.0442 4.99002C28.1419 3.75881 26.8718 2.8118 25.4547 2.25411Z" fill="#E0DEDA"/>
<path d="M14.2648 4.83332C14.0944 4.85181 13.9232 4.86836 13.7519 4.89464C13.0199 5.2022 12.3192 5.59735 11.7235 6.12682C11.7527 6.15407 11.8111 6.20858 11.8403 6.23583C11.8919 6.19203 11.9951 6.10346 12.0476 6.05869C12.4048 5.76573 12.8457 5.60806 13.2594 5.41437C13.6117 5.25183 13.9368 5.03771 14.2648 4.83332Z" fill="#E0DEDA"/>
<path d="M25.8381 8.95811C25.8128 8.71771 25.6474 8.5211 25.4527 8.39165C25.1529 8.70603 24.9885 9.10994 24.86 9.51775C25.2425 9.46811 25.6746 9.34937 25.8381 8.95811Z" fill="#E0DEDA"/>
<path d="M27.4343 10.5222C27.4869 10.0054 27.483 9.42528 27.1345 9.00482C27.1423 9.40776 27.2367 9.82433 27.0985 10.2175C26.9272 10.8064 26.5428 11.402 25.9345 11.6025C25.3719 11.7261 24.7918 11.5402 24.2789 11.3125C23.8263 11.1081 23.511 10.7159 23.1431 10.3986C23.3319 11.1558 24.0395 11.6444 24.7597 11.8312C25.3495 11.9948 26.0668 12.0629 26.571 11.6473C26.935 11.3466 27.3049 10.9903 27.4343 10.5222Z" fill="#E0DEDA"/>
<path d="M39.8573 14.8543C39.5166 14.8679 39.1731 14.8368 38.8344 14.8796C38.6952 14.9818 38.5852 15.118 38.4684 15.2455C38.9385 15.1424 39.4028 15.0129 39.8573 14.8543Z" fill="#E0DEDA"/>
<path d="M42.2526 15.6349C41.8108 15.4821 41.1898 15.5521 40.9484 16.0018C40.7947 16.6675 41.0487 17.3595 41.3952 17.925C41.2599 17.5454 41.0098 17.1765 41.0662 16.7561C41.0896 16.3473 41.3669 15.9113 41.8001 15.8616C42.2351 15.8227 42.6371 16.0193 43.0001 16.2334C42.9106 15.885 42.5845 15.6972 42.2526 15.6349Z" fill="#E0DEDA"/>
<path d="M33.7539 18.3416C33.1913 18.619 32.6395 18.9178 32.0653 19.1708C32.5743 19.0968 33.06 18.9051 33.5096 18.6628C33.6439 18.6053 33.6877 18.4574 33.7539 18.3416Z" fill="#E0DEDA"/>
<path d="M41.4828 18.8993C41.2073 18.9508 41.2034 19.2642 41.1324 19.4813C40.9222 20.3631 40.7509 21.3023 40.1669 22.0284C39.5148 22.9063 38.5084 23.4085 37.5361 23.8513C35.8835 24.5823 34.0985 25.1731 32.2658 25.0125C29.9649 25.0164 27.7624 24.0976 25.4547 24.2115C24.6955 24.2017 23.9218 24.3759 23.294 24.8159C22.5095 25.3356 22.0083 26.1541 21.5353 26.9445C21.3202 27.3211 21.18 27.7367 21.0866 28.1591C21.5236 27.6841 21.6871 27.033 22.09 26.5308C22.6516 25.6091 23.5062 24.8081 24.5982 24.6018C26.3375 24.3078 28.0787 24.7643 29.7741 25.1137C31.345 25.4534 32.987 25.5244 34.5666 25.2062C36.1793 24.9054 37.7123 24.2504 39.1167 23.4134C39.981 22.9053 40.5689 22.0323 40.8959 21.1008C41.1402 20.3816 41.3154 19.638 41.4828 18.8993Z" fill="#E0DEDA"/>
<path d="M25.37 1.32949C24.2468 1.03847 23.1032 0.833113 21.9528 0.689066C19.7745 0.483703 17.536 0.730915 15.4979 1.5475C14.6346 1.93974 13.7684 2.36312 13.0365 2.97629C12.762 3.1836 12.5382 3.44931 12.2656 3.65856C11.9386 3.77536 11.5795 3.72864 11.2417 3.8065C10.5721 3.9486 9.9035 4.15591 9.3195 4.5209C9.1531 4.61725 9.0382 4.77395 8.9312 4.93065C9.2329 4.94914 9.5044 4.81094 9.7682 4.6883C10.5001 4.34473 11.3245 4.28342 12.1216 4.27758C12.4447 4.26784 12.7902 4.29801 13.0822 4.13158C13.5504 3.45125 14.2531 2.98213 14.9509 2.56362C16.261 1.83365 17.7287 1.37231 19.2227 1.238C21.3415 1.11439 23.4847 1.46477 25.4547 2.25411C26.8718 2.8118 28.1419 3.75881 29.0441 4.99002C30.0972 6.46455 30.4729 8.3099 31.5864 9.74745C32.0652 10.3558 32.4409 11.1266 33.1903 11.4458C34.3641 12.0181 35.6206 12.3899 36.8246 12.8892C37.7512 13.2717 38.6738 13.6659 39.5722 14.1117C40.1688 14.4212 40.8112 14.6207 41.4574 14.7949C41.0409 15.048 40.5377 15.0567 40.0851 15.2105C39.4729 15.3906 38.7838 15.6806 38.5434 16.3259C38.3507 16.7464 38.5132 17.2194 38.7167 17.6029C39.0417 18.1839 39.6549 18.508 40.2311 18.7912C40.6652 18.5314 41.1684 18.4136 41.5918 18.1352C41.6696 18.252 41.7475 18.3698 41.8244 18.4885C42.0327 18.2812 42.2633 18.0934 42.5368 17.9795C42.4667 18.2014 42.3782 18.4564 42.1417 18.5508C41.9168 18.618 41.6803 18.5197 41.4506 18.5557C40.9873 18.6764 40.5844 18.946 40.1493 19.1348C39.4885 18.7893 38.8685 18.2997 38.4763 17.6564C38.1142 17.0549 38.2125 16.2772 38.6262 15.7283C38.3128 15.7828 38.0996 16.0261 37.8611 16.213C37.6276 16.4028 37.3297 16.4768 37.0485 16.5663C37.3443 16.1935 37.6373 15.8159 37.8534 15.3896C37.2373 15.5716 36.701 15.959 36.0645 16.0787C36.3944 15.6845 36.8226 15.3964 37.2198 15.0772C36.5793 14.9321 35.9262 14.8494 35.278 14.7453C35.4649 14.3968 35.7579 14.1302 36.081 13.9112C35.4717 13.8742 34.8615 13.8849 34.2522 13.9219C34.3135 13.8391 34.3748 13.7564 34.4342 13.6737C33.8259 13.6873 33.2186 13.7915 32.6093 13.7311C33.1485 13.2445 33.9349 13.3369 34.6055 13.2445C34.1247 13.043 33.6653 12.7471 33.1339 12.7033C32.9295 12.6809 32.7241 12.6644 32.5188 12.644C32.8808 12.315 33.383 12.3267 33.8405 12.3091C33.641 12.1631 33.4424 12.0162 33.2332 11.8838C32.6258 11.5772 32.0779 11.1714 31.5075 10.8044C29.9162 9.54014 29.1892 7.58091 28.285 5.82997C28.2091 5.68495 28.1292 5.54187 28.0475 5.3988C27.6192 4.49948 26.8114 3.89118 26.0318 3.31305C25.9578 3.32667 25.808 3.35587 25.734 3.37047C25.9189 4.21042 26.7277 4.69804 27.0051 5.4971C26.4931 5.16521 26.169 4.62309 25.66 4.28633C25.1724 3.91454 24.5748 3.71015 23.9616 3.70139C24.2896 4.10336 24.7373 4.38172 25.0848 4.76227C25.2337 4.91216 25.2532 5.1292 25.298 5.32483C24.8395 5.33651 24.3811 5.37155 23.9295 5.45622C24.1845 5.5847 24.4444 5.70441 24.7062 5.82024C24.7237 5.87669 24.7597 5.98959 24.7772 6.04604C24.5456 6.02657 24.314 6.00613 24.0823 5.98764C24.4054 6.13071 24.7266 6.28254 25.0089 6.49861C24.275 6.54533 23.5275 6.52684 22.8209 6.76724C23.1158 6.79157 23.4088 6.83732 23.6969 6.90448C23.6881 7.25389 23.4185 7.45146 23.1343 7.59356C23.9315 7.65585 24.7325 7.66364 25.5257 7.76389C25.9471 7.81353 26.3218 8.02765 26.6557 8.27681C26.1642 8.21258 25.6405 7.97607 25.1578 8.19506C24.1845 8.67197 23.694 9.75329 22.7285 10.2399C22.2759 10.4784 21.8389 10.7665 21.3425 10.9096C21.1576 10.9689 20.9707 10.8842 20.7887 10.8512C21.1196 10.6507 21.4613 10.4706 21.7854 10.2613C21.4359 10.2604 21.0865 10.2662 20.7371 10.275C20.9026 9.98493 20.9678 9.65693 20.961 9.32504C21.3727 8.94643 21.8876 8.63303 22.1309 8.10941C22.1075 8.08605 22.0618 8.03836 22.0384 8.015C21.2841 8.33618 20.889 9.14304 20.1522 9.47979C20.3751 8.99218 20.8491 8.68364 21.0778 8.19895C21.3016 7.73177 21.654 7.3152 21.7202 6.78574C21.1109 6.81299 20.561 7.08746 20.0101 7.32202C20.1746 7.08356 20.3429 6.84803 20.4958 6.60276C20.1571 6.74096 19.8592 6.95704 19.5419 7.13709C19.3979 7.23637 19.1604 7.18576 19.102 7.01056C19.1108 6.74583 19.1847 6.48888 19.2324 6.22999C19.0222 6.48402 18.81 6.7361 18.5745 6.96677C18.7876 6.24362 19.2996 5.68105 19.7054 5.06399C19.5487 4.98515 19.3911 4.73307 19.1993 4.85765C18.6786 5.11947 18.2844 5.57302 17.9467 6.0363C17.4688 6.69425 17.3715 7.52446 17.2002 8.29725C16.9871 9.26372 16.9763 10.2633 17.0708 11.2453C17.1593 12.1291 17.4951 12.9573 17.7034 13.8148C18.0947 15.3867 18.6835 16.9031 19.3813 18.363C20.1716 19.9718 20.4646 21.786 20.4422 23.5681C20.4666 25.2237 19.7074 26.8082 18.6222 28.0268C18.0119 28.674 17.3043 29.257 16.4615 29.5714C15.4843 29.9451 14.4351 30.2001 13.382 30.1154C11.634 29.984 9.8937 29.2677 8.6878 27.9703C7.7973 26.96 7.262 25.6909 6.8989 24.4071C6.5086 22.9676 6.2507 21.497 5.9003 20.0477C5.6531 19.0083 5.366 17.9425 5.5178 16.8651C5.7183 14.4601 6.8795 12.3004 7.6386 10.0472C7.2211 10.6964 7.0381 11.4672 6.5846 12.094C5.9548 12.9797 5.3582 13.8937 4.8813 14.8708C4.345 15.9765 4.2749 17.2593 4.4842 18.4554C4.8239 19.9397 5.6551 21.2692 5.9042 22.7817C4.7266 21.9933 3.7241 20.9081 3.1459 19.6049C2.7527 18.7455 2.7615 17.7566 2.9717 16.8515C3.108 16.25 3.4282 15.7156 3.7465 15.1959C4.1698 14.4971 4.6613 13.843 5.1334 13.1763C5.6687 12.4191 6.3072 11.7388 6.8162 10.9621C7.3476 10.1728 7.7282 9.29292 8.0494 8.40042C8.2898 7.72398 8.7345 7.15461 9.0995 6.54436C8.9866 7.28308 8.7715 8.04419 8.9827 8.78584C9.0616 9.14012 9.2669 9.44476 9.485 9.72798C10.1818 8.50359 10.6587 7.09913 11.7235 6.12682C12.3192 5.59735 13.0199 5.2022 13.7518 4.89464C13.6097 4.81094 13.4647 4.70485 13.2895 4.71263C12.1956 4.69804 11.0938 4.69122 10.0125 4.89269C9.4694 4.96277 8.9681 5.20122 8.498 5.47277C8.0357 5.75989 7.5549 6.11028 7.37 6.64753C7.1588 7.22372 7.0439 7.83494 6.7568 8.3829C6.0317 10.055 4.9261 11.5169 3.8934 13.007C3.0408 14.2567 2.0753 15.4772 1.6111 16.9391C1.2276 18.2296 1.6977 19.5815 2.304 20.7232C2.9026 21.7559 3.7143 22.6708 4.6857 23.3676C4.5095 24.5949 4.1562 25.7892 3.8905 26.999C3.5683 28.4073 3.2472 29.8176 2.8121 31.1968C2.3031 32.8912 1.2529 34.3648 0.776001 36.071C0.345801 37.4268 0.373 38.9188 0.8568 40.2571C1.3784 41.7083 2.2768 43.0134 3.3786 44.085C4.2623 44.8413 5.1976 45.6043 6.3189 45.9683C5.9918 45.5858 5.5188 45.3775 5.1675 45.0233C4.0316 43.9157 2.9581 42.6757 2.3936 41.172C1.8281 39.75 1.5751 38.1548 1.9468 36.651C2.1765 35.7644 2.6145 34.9536 3.0311 34.1448C3.5138 33.1891 3.9859 32.2284 4.4608 31.2697C4.7723 32.3326 5.1285 33.3974 5.7213 34.3414C6.5534 35.6272 7.7136 36.6676 8.9837 37.5085C9.7808 38.0263 10.5653 38.5704 11.2602 39.2205C11.6106 39.5232 11.926 39.8707 12.3172 40.1237C11.814 38.9967 10.8933 38.1178 10.3356 37.018C10.0271 36.4058 9.5735 35.8364 9.482 35.1405C10.0524 36.0827 10.6276 37.0297 11.3439 37.8716C12.653 39.4132 14.0117 40.9121 15.3656 42.4149C15.9807 43.1351 16.6522 43.8144 17.1642 44.6164C17.2751 44.7877 17.4134 44.9386 17.5613 45.0787C17.1963 43.8894 16.623 42.7691 15.9651 41.716C15.422 40.8294 14.9198 39.8931 14.7232 38.8614C14.6122 38.2443 14.4896 37.6224 14.4896 36.9927C14.7962 37.7762 14.8663 38.6424 15.2906 39.3821C15.9885 40.7953 17.1817 41.9 17.8241 43.3453C18.2222 44.2242 18.3185 45.1965 18.41 46.1455C18.4411 46.3372 18.4343 46.5747 18.6251 46.6886C18.9969 45.4428 19.2159 44.1395 19.1585 42.8373C19.0212 41.4824 18.518 40.2065 18.0995 38.9227C17.5087 36.3085 17.6976 33.4421 18.9872 31.0576C18.9862 31.6464 18.8207 32.2158 18.7399 32.7949C18.594 33.7409 18.4548 34.7064 18.5949 35.6612C18.6903 35.3838 18.7244 35.0734 18.9132 34.8388C19.1896 34.4787 19.5419 34.1857 19.9069 33.921C20.3293 34.4816 20.6476 35.1298 21.1625 35.6155C21.1021 34.8115 20.9503 34.0144 20.9834 33.2046C20.8744 31.4771 21.7805 29.8624 22.9144 28.6253C23.9675 27.4165 25.441 26.5512 27.0499 26.3829C26.9701 27.3639 26.7297 28.3275 26.6674 29.3125C26.6479 30.9787 26.6528 32.7083 27.3136 34.2694C27.5618 34.8086 27.8168 35.3527 28.1867 35.8208C28.3015 35.961 28.395 36.1206 28.4086 36.3055C28.7268 38.4682 28.8738 40.6522 28.9449 42.8353C29.084 44.8578 28.8495 46.9017 28.2645 48.8434C27.9774 50.099 27.1998 51.2786 27.3857 52.612C27.6582 52.2966 27.8304 51.9151 28.0348 51.5579C28.9244 49.9676 29.6914 48.2896 30.107 46.5105C30.4924 44.9649 30.5673 43.356 30.4369 41.7735C30.3814 41.4211 30.3805 41.0649 30.3542 40.7116C30.8058 41.8533 31.3664 42.9492 31.7917 44.1025C31.8345 44.2437 31.9183 44.3692 32.0623 44.4218C32.1908 44.0033 32.1178 43.5682 32.0224 43.1516C31.744 41.9389 31.4452 40.7097 30.8282 39.6157C30.3581 38.7057 29.7585 37.8706 29.2631 36.9742C30.1887 37.6253 31.0452 38.4711 32.1684 38.765C31.8569 38.2151 31.3576 37.8161 30.9528 37.3421C29.9269 36.217 29.1162 34.9001 28.5925 33.4703C28.1993 32.2907 28.0319 31.0371 28.1108 29.7962C28.1906 28.636 28.3589 27.4798 28.5847 26.34C30.2637 26.304 31.9426 26.415 33.6196 26.3391C35.4542 26.1532 37.2869 25.7347 38.9396 24.8976C39.6559 24.5073 40.3605 24.0655 40.9085 23.4523C41.4594 22.8742 41.7572 22.1189 42.092 21.4074C42.5553 20.4011 42.7801 19.3061 42.896 18.2102C42.9252 17.9766 42.9203 17.7226 43.0604 17.5221C43.3067 17.1425 43.5432 16.7327 43.5734 16.2714C43.5179 15.8305 43.2483 15.4412 42.9125 15.1609C42.5719 14.8757 42.1378 14.754 41.7475 14.5565C40.5153 13.9365 39.3172 13.2386 38.0208 12.7539C36.4616 12.1534 34.8809 11.6016 33.3753 10.8716C33.2984 9.99953 33.5028 9.14304 33.5777 8.27973C33.5086 8.24275 33.3714 8.16878 33.3023 8.13179C33.0862 8.14737 32.8 8.07534 32.6696 8.30309C32.4088 8.67099 32.3017 9.12162 32.0613 9.50218C32.0341 9.10508 32.0769 8.70895 32.1333 8.31672C32.0039 8.22425 31.8745 8.13277 31.7431 8.04322C31.7839 7.87484 31.817 7.70354 31.8793 7.54198C31.9922 7.45633 32.1236 7.39793 32.2472 7.33272C32.2462 7.20717 32.2443 7.08162 32.2355 6.95703C31.9766 6.16478 31.6496 5.38128 31.2175 4.66494C30.6656 3.74713 29.8189 3.06583 28.9818 2.42152C28.5575 2.12466 28.1672 1.7772 27.7117 1.52706C27.7652 1.71588 27.8275 1.90373 27.8859 2.09157C27.045 1.84533 26.2216 1.53972 25.37 1.32949ZM29.6388 4.19971C29.9532 4.51408 30.2568 4.85473 30.4184 5.27617C30.106 5.00267 29.8656 4.66008 29.5687 4.37004C29.2154 4.00797 28.8164 3.69263 28.4728 3.32083C28.9127 3.53885 29.2904 3.85809 29.6388 4.19971ZM25.8381 8.95811C25.6746 9.34937 25.2425 9.46812 24.86 9.51775C24.5008 9.44573 24.5875 8.98147 24.8794 8.8783C24.9008 8.76929 24.9193 8.66029 24.9485 8.5542C25.1004 8.45882 25.2843 8.43935 25.4527 8.39166C25.6474 8.52111 25.8128 8.71771 25.8381 8.95811ZM27.4343 10.5222C27.3049 10.9903 26.935 11.3466 26.571 11.6473C26.0668 12.0629 25.3495 11.9948 24.7597 11.8313C24.0395 11.6444 23.3319 11.1558 23.1431 10.3986C23.511 10.7159 23.8263 11.1081 24.2789 11.3125C24.7918 11.5402 25.3719 11.7261 25.9345 11.6025C26.5428 11.402 26.9272 10.8064 27.0985 10.2175C27.2367 9.82434 27.1423 9.40777 27.1345 9.00483C27.483 9.42529 27.4869 10.0054 27.4343 10.5222ZM42.2526 15.6349C42.5845 15.6972 42.9106 15.885 43.0001 16.2334C42.6371 16.0193 42.2351 15.8227 41.8 15.8616C41.3669 15.9113 41.0895 16.3473 41.0662 16.7561C41.0097 17.1765 41.2599 17.5454 41.3952 17.925C41.0487 17.3595 40.7946 16.6675 40.9484 16.0018C41.1898 15.5521 41.8107 15.4821 42.2526 15.6349ZM24.9972 18.3932C24.6235 18.5732 24.2342 18.7757 23.8059 18.7581C23.4146 18.7757 23.0273 18.6686 22.637 18.7007C22.3022 18.8068 22.0024 19.0054 21.6569 19.0861C22.0735 18.7124 22.5728 18.4467 23.0467 18.1547C23.6813 17.963 24.4921 17.854 24.9972 18.3932ZM33.7539 18.3416C33.6877 18.4574 33.6439 18.6053 33.5096 18.6628C33.0599 18.9051 32.5742 19.0968 32.0652 19.1708C32.6395 18.9178 33.1913 18.619 33.7539 18.3416ZM41.4828 18.8993C41.3153 19.638 41.1402 20.3816 40.8959 21.1008C40.5688 22.0323 39.981 22.9053 39.1167 23.4134C37.7122 24.2504 36.1793 24.9054 34.5666 25.2062C32.9869 25.5244 31.345 25.4534 29.7741 25.1137C28.0786 24.7643 26.3374 24.3078 24.5982 24.6018C23.5061 24.8081 22.6516 25.6091 22.09 26.5308C21.6871 27.033 21.5235 27.6842 21.0865 28.1591C21.18 27.7367 21.3201 27.3211 21.5352 26.9445C22.0082 26.1541 22.5095 25.3356 23.294 24.8159C23.9217 24.376 24.6955 24.2017 25.4547 24.2115C27.7623 24.0976 29.9649 25.0164 32.2657 25.0125C34.0984 25.1731 35.8834 24.5823 37.5361 23.8514C38.5084 23.4085 39.5148 22.9063 40.1669 22.0284C40.7508 21.3023 40.9221 20.3631 41.1324 19.4813C41.2034 19.2643 41.2073 18.9509 41.4828 18.8993ZM25.3544 19.0832C24.9242 19.2672 24.4522 19.2954 24.0006 19.4015C23.4682 19.5231 22.9533 19.7285 22.4053 19.7811C22.5075 19.6429 22.6107 19.491 22.7878 19.4482C23.2492 19.2954 23.7241 19.1883 24.1981 19.0822C24.5787 19.0161 24.9855 18.9129 25.3544 19.0832ZM24.9495 19.5767C24.9408 19.6399 24.9223 19.7665 24.9135 19.8288C24.6653 19.891 24.1203 19.9796 24.1183 19.6107C24.3811 19.4832 24.677 19.4901 24.9495 19.5767Z" fill="#3E2822"/>
<path d="M19.4952 4.20166C19.247 3.87366 18.8159 3.91064 18.4528 3.95152C17.318 4.10725 16.1763 4.4187 15.2196 5.07177C14.3621 5.64893 13.6292 6.40128 12.9976 7.2169C12.1839 8.45687 11.4841 9.80974 11.2145 11.2813C10.9254 13.0479 11.5883 14.8864 12.7698 16.2013C13.2681 16.7736 14.0273 17.1298 14.3164 17.8666C14.6522 18.5995 14.9695 19.4307 14.7329 20.2414C14.4468 21.2244 13.9816 22.1763 13.2847 22.9335C13.1222 22.3311 13.3275 21.7218 13.4686 21.1378C13.3645 21.2381 13.2604 21.3403 13.1562 21.4425C12.8438 21.1914 13.017 20.7855 13.0676 20.4575C12.9431 20.586 12.8185 20.7144 12.6929 20.8429C12.5596 19.2214 11.5435 17.8919 11.0276 16.393C10.7201 15.376 10.615 14.3112 10.5274 13.2552C10.5001 12.6362 10.4923 12.0084 10.6198 11.3981C10.8135 10.273 11.344 9.2462 11.8744 8.24858C12.3416 7.36094 12.9557 6.55117 13.6867 5.865C14.0565 5.50975 14.5266 5.26838 14.8478 4.86154C14.4429 4.98807 14.0838 5.21874 13.6974 5.39198C13.1903 5.62947 12.6384 5.85527 12.3026 6.33023C11.415 7.49526 10.796 8.87927 10.5692 10.3285C10.4807 11.2064 10.2441 12.0707 10.2938 12.9593C10.3434 13.9209 10.1994 14.9098 10.5167 15.8383C10.6529 16.5137 10.9673 17.16 10.9663 17.8578C10.7084 17.5912 10.6374 17.2174 10.5254 16.8777C10.1166 15.5405 9.67281 14.174 9.69911 12.7598C9.69331 12.1583 9.90352 11.5801 9.89772 10.9787C9.66312 11.3689 9.64361 11.8322 9.56581 12.2692C9.42171 13.1734 9.19881 14.0825 9.27381 15.0051C9.49671 16.8116 10.3025 18.5177 10.2977 20.3563C10.3123 21.1904 10.0573 21.9914 9.88792 22.7992C9.76142 23.4114 9.53851 24.009 9.52201 24.6397C9.51221 24.9745 9.52202 25.3113 9.48302 25.6461C9.38382 25.4904 9.29522 25.322 9.29322 25.1322C9.21442 24.3545 9.52591 23.6265 9.67961 22.881C9.81201 22.041 10.0835 21.2167 10.0553 20.3572C10.0826 19.2078 9.68742 18.1138 9.41682 17.0121C9.25332 16.3736 9.17452 15.7176 9.03342 15.0752C8.74532 14.9175 8.46692 14.7044 8.37062 14.3754C8.13992 13.6503 8.35691 12.8785 8.22551 12.1398C8.12631 12.3218 8.06011 12.5194 8.02211 12.7238C7.95891 12.6761 7.89461 12.6284 7.82941 12.5817C7.63571 13.0741 7.46542 13.5871 7.48492 14.1233C7.47712 14.8796 7.42652 15.6495 7.61922 16.3901C7.91122 17.6603 8.05041 18.9616 8.15061 20.2589C8.11361 21.0181 8.31801 21.7617 8.29081 22.5199C8.05421 22.1345 7.94821 21.6897 7.89661 21.2449C7.82941 20.7213 7.74572 20.1996 7.71072 19.673C7.64162 18.3883 7.33111 17.1347 7.19091 15.8587C7.03231 14.5555 7.20262 13.2464 7.26202 11.9432C6.71212 12.8951 6.43761 13.9715 6.08721 15.0061C5.84101 15.9512 5.57431 16.9186 5.63661 17.9046C5.92181 19.4375 6.39192 20.9276 6.87072 22.4089C7.36812 23.8903 7.85471 25.3969 8.65871 26.7459C9.58231 28.2856 11.3177 29.1412 13.0394 29.4293C14.147 29.5928 15.2361 29.2434 16.2659 28.8755C17.389 28.4939 18.1978 27.5528 18.8402 26.598C19.5624 25.5458 19.7629 24.2368 19.7726 22.9861C19.8116 21.568 19.5118 20.1538 18.9736 18.8457C18.5667 17.8082 18.011 16.8339 17.6596 15.774C17.2966 14.7784 16.9355 13.7788 16.6961 12.7442C16.3077 10.9787 16.3642 9.11481 16.8391 7.37262C17.0766 6.51321 17.4484 5.65185 18.1297 5.05036C18.5249 4.67565 19.0611 4.51895 19.4952 4.20166ZM14.0468 7.87971C13.8998 8.41793 13.6263 8.90945 13.4725 9.44573C13.384 9.75718 13.2925 10.0715 13.126 10.3528C13.0774 9.69683 13.3003 9.06128 13.5679 8.47439C13.6711 8.23593 13.8327 8.02765 14.0468 7.87971ZM14.4546 9.51678C14.5003 10.0492 14.441 10.5825 14.4702 11.1149C14.5071 11.8984 14.6444 12.6731 14.7456 13.4498C14.8848 14.5691 15.3033 15.6251 15.5739 16.7142C15.9009 18.0895 16.1792 19.5095 16.0109 20.9276C15.9028 21.8843 15.7306 22.8557 15.2906 23.7209C15.203 23.9175 15.0434 24.0645 14.8566 24.1677C14.9519 23.827 15.1077 23.5078 15.2264 23.1759C15.7617 21.5943 15.8016 19.8803 15.5505 18.2413C15.3627 17.2067 15.1875 16.1672 14.8789 15.1609C14.4828 13.845 14.2512 12.4834 14.1519 11.1149C14.1276 10.5728 14.1032 9.96935 14.4546 9.51678ZM17.7715 20.7339C17.8543 21.5466 17.7881 22.3661 17.6752 23.172C17.6567 23.3705 17.5759 23.5535 17.4669 23.719C17.4338 23.4416 17.4377 23.1623 17.464 22.8858C17.538 22.0362 17.5905 21.1855 17.6275 20.3339C17.7073 20.4536 17.7647 20.5879 17.7715 20.7339ZM15.206 21.3208C15.1855 22.1121 15.0317 22.9744 14.4779 23.5769C14.6989 22.8187 14.9218 22.0576 15.206 21.3208Z" fill="#3E2822"/>
<path d="M11.525 7.00765C11.7118 6.69912 12.0486 6.44995 12.0476 6.05869C11.995 6.10346 11.8919 6.19203 11.8403 6.23583C10.9896 7.16824 10.3774 8.2846 9.83531 9.41653C9.51801 10.1192 9.4178 10.892 9.2455 11.6385C9.0732 12.5388 8.8114 13.4401 8.8747 14.3667C9.119 13.7078 9.1501 12.9963 9.3224 12.3189C9.5433 10.9757 9.94721 9.64915 10.6509 8.47634C10.9536 7.99359 11.2164 7.48651 11.525 7.00765Z" fill="#3E2822"/>
<path d="M33.4482 7.39793C33.131 7.26848 32.8127 7.14001 32.4973 7.00472C32.5781 7.18381 32.6784 7.35219 32.7864 7.5157C32.6832 7.52738 32.5791 7.54003 32.475 7.55268C32.8497 7.76194 33.2419 7.94005 33.6517 8.0695C33.8969 8.14834 34.1442 8.21841 34.3923 8.28557C34.112 7.95952 33.8707 7.5556 33.4482 7.39793Z" fill="#3E2822"/>
<path d="M8.77639 11.1003C8.71709 12.0843 8.43869 13.0566 8.55839 14.0474C8.68199 13.6659 8.67329 13.262 8.71509 12.8678C8.77739 12.2809 8.80079 11.6901 8.77639 11.1003Z" fill="#3E2822"/>
<path d="M4.70508 20.4692C4.54058 19.9709 4.32158 19.4735 3.95558 19.0881C4.03158 19.6166 4.28558 20.1315 4.70508 20.4692Z" fill="#3E2822"/>
<path d="M26.6002 28.1669C25.3369 28.3119 24.2186 29.0351 23.3835 29.9675C22.2701 31.2785 21.7688 33.0645 21.8827 34.7668C22.1202 36.3386 22.7995 37.8151 23.6482 39.1466C23.6229 37.1523 23.7115 35.0889 24.5145 33.2319C24.8658 32.3384 25.3427 31.5024 25.878 30.7082C26.135 30.2857 26.4601 29.877 26.534 29.3738C26.2031 29.6035 25.9374 29.9101 25.6561 30.1962C25.0829 30.7977 24.5057 31.4177 24.1407 32.1739C23.7748 32.9292 23.4692 33.7224 23.3086 34.5497C23.1168 35.4588 23.112 36.3931 23.0623 37.3177C22.6399 36.3328 22.601 35.2291 22.6691 34.174C22.8375 33.0548 23.1022 31.9228 23.6755 30.9349C24.3986 29.7855 25.4459 28.8677 26.6002 28.1669Z" fill="#3E2822"/>
<path d="M6.89025 37.4599C5.76215 36.436 4.89015 35.1347 4.39375 33.6923C4.38305 34.5332 4.34994 35.379 4.47644 36.215C4.70904 38.1655 5.71064 39.9719 7.08974 41.3491C8.12924 42.3964 9.26995 43.3405 10.4612 44.2096C12.1333 45.3912 13.746 46.6535 15.4687 47.7621C16.7106 48.5271 17.8912 49.407 18.9151 50.4493C19.3726 50.898 19.8651 51.3126 20.2914 51.7935C20.4276 51.9472 20.5814 52.0864 20.7585 52.1915C20.6184 51.4869 20.2816 50.8377 19.9225 50.2216C18.9142 48.6166 17.7063 47.1343 16.3427 45.8175C15.6556 45.142 15.0074 44.4286 14.3193 43.7541C13.3012 42.7925 12.3425 41.7618 11.2223 40.9141C9.78575 39.7539 8.27325 38.6862 6.89025 37.4599Z" fill="#3E2822"/>
<path d="M3.28907 35.7157C3.03207 35.8792 3.00577 36.2063 2.94347 36.4778C2.74597 37.7635 3.09247 39.0541 3.51577 40.259C4.07057 41.7365 5.03217 43.0339 6.19817 44.0879C7.34567 45.1186 8.61777 46.0082 9.96677 46.7547C11.4423 47.5314 12.9178 48.3188 14.4643 48.9476C14.5928 48.9962 14.7271 49.0293 14.8605 49.0605C14.6269 48.7558 14.2512 48.6273 13.9261 48.4463C12.6034 47.7981 11.3479 47.0204 10.1274 46.1961C8.14667 44.7829 6.14957 43.2061 5.00007 41.0075C4.46767 40.076 4.01027 39.092 3.76107 38.0448C3.55767 37.2778 3.47297 36.4866 3.28907 35.7157Z" fill="#3E2822"/>
<path d="M20.265 39.5622C20.1765 39.3977 20.0324 39.2799 19.8709 39.1923C19.8806 39.5894 19.9818 39.9758 20.0607 40.3632C20.2845 41.4085 20.4763 42.4606 20.5814 43.5244C20.8013 45.5654 20.5288 47.6151 20.6475 49.659C20.9785 48.4551 21.3532 47.2501 21.4223 45.9956C21.5702 44.7459 21.4291 43.4835 21.2276 42.2484C21.0836 41.3024 20.7692 40.3768 20.265 39.5622Z" fill="#3E2822"/>
<path d="M26.8601 41.9263C26.6936 41.6168 26.4639 41.3423 26.171 41.1457C26.3004 41.8075 26.572 42.4382 26.6216 43.1156C26.6771 43.8524 26.7871 44.595 26.6781 45.3318C26.5233 46.7304 25.9958 48.0482 25.5938 49.3865C25.3466 50.1642 25.2269 50.9837 25.2775 51.8003C25.3476 53.4412 26.1398 55.1143 27.5608 56C27.227 55.0345 26.9623 54.0437 26.7764 53.0393C26.6956 51.9317 26.7219 50.7929 27.0693 49.7272C27.5277 48.2877 27.9696 46.7995 27.8548 45.2705C27.8801 44.0801 27.4255 42.9502 26.8601 41.9263Z" fill="#3E2822"/>
<path d="M24.7734 2.44779C23.2589 1.64288 21.5012 1.44822 19.8096 1.45893C18.5356 1.45114 17.3102 1.84825 16.1238 2.27065C15.3773 2.53636 14.66 2.90134 14.0409 3.39967C13.7022 3.67219 13.4248 4.00894 13.1027 4.29996C13.0978 4.2581 13.0871 4.17343 13.0823 4.13158C12.7903 4.29801 12.4448 4.26784 12.1216 4.27757C11.3245 4.28341 10.5001 4.34473 9.76823 4.6883C9.50443 4.81093 9.23292 4.94914 8.93122 4.93065L8.86312 4.93259C8.72002 5.09708 8.58963 5.27324 8.49813 5.47277C8.96823 5.20122 9.46943 4.96276 10.0125 4.89269C11.0938 4.69122 12.1956 4.69803 13.2896 4.71263C13.4648 4.70485 13.6098 4.81093 13.7519 4.89464C13.9232 4.86836 14.0945 4.85181 14.2648 4.83332C13.9368 5.03771 13.6117 5.25183 13.2594 5.41437C12.8457 5.60805 12.4048 5.76573 12.0477 6.05869C12.0486 6.44995 11.7119 6.69911 11.525 7.00764C11.2165 7.4865 10.9537 7.99358 10.651 8.47633C9.94733 9.64914 9.54343 10.9757 9.32243 12.3189C9.15023 12.9963 9.11903 13.7078 8.87473 14.3667C8.81153 13.4401 9.07333 12.5388 9.24563 11.6385C9.41783 10.892 9.51813 10.1192 9.83543 9.41653C10.3775 8.28459 10.9897 7.16823 11.8403 6.23583C11.8111 6.20857 11.7527 6.15407 11.7235 6.12682C10.6588 7.09913 10.1819 8.50358 9.48503 9.72798C9.26703 9.44475 9.06163 9.14011 8.98283 8.78584C8.77163 8.04419 8.98673 7.28308 9.09963 6.54436C8.73463 7.15461 8.28983 7.72398 8.04943 8.40041C7.72823 9.29292 7.34763 10.1728 6.81623 10.9621C6.30723 11.7388 5.66873 12.4191 5.13343 13.1763C4.66143 13.843 4.16992 14.4971 3.74652 15.1959C3.42822 15.7156 3.10803 16.25 2.97173 16.8515C2.76153 17.7566 2.75283 18.7455 3.14603 19.6049C3.72413 20.9081 4.72663 21.9933 5.90433 22.7817C5.65513 21.2692 4.82393 19.9397 4.48423 18.4554C4.27503 17.2593 4.34513 15.9765 4.88133 14.8708C5.35823 13.8936 5.95493 12.9797 6.58463 12.094C7.03813 11.4672 7.22113 10.6964 7.63873 10.0472C6.87953 12.3004 5.71843 14.4601 5.51793 16.8651C5.36603 17.9425 5.65322 19.0083 5.90042 20.0477C6.25072 21.497 6.50872 22.9676 6.89902 24.4071C7.26202 25.6909 7.79733 26.96 8.68793 27.9703C9.89383 29.2677 11.634 29.984 13.382 30.1154C14.4351 30.2001 15.4843 29.9451 16.4615 29.5714C17.3044 29.257 18.012 28.674 18.6222 28.0267C19.7074 26.8082 20.4666 25.2237 20.4423 23.5681C20.4646 21.786 20.1717 19.9718 19.3814 18.363C18.6835 16.9031 18.0947 15.3867 17.7034 13.8148C17.4951 12.9573 17.1594 12.1291 17.0708 11.2453C16.9764 10.2633 16.9871 9.26372 17.2002 8.29725C17.3715 7.52446 17.4689 6.69424 17.9467 6.0363C18.2845 5.57302 18.6787 5.11946 19.1994 4.85765C19.3911 4.73307 19.5488 4.98515 19.7055 5.06399C19.2996 5.68105 18.7877 6.24361 18.5745 6.96676C18.81 6.7361 19.0222 6.48401 19.2325 6.22999C19.1848 6.48888 19.1108 6.74583 19.102 7.01056C19.1604 7.18575 19.3979 7.23637 19.542 7.13709C19.8593 6.95703 20.1571 6.74096 20.4958 6.60275C20.343 6.84802 20.1746 7.08356 20.0101 7.32201C20.561 7.08745 21.1109 6.81298 21.7202 6.78573C21.654 7.3152 21.3017 7.73177 21.0778 8.19894C20.8491 8.68364 20.3751 8.99217 20.1522 9.47979C20.889 9.14303 21.2841 8.33618 22.0384 8.01499C22.0618 8.03835 22.1075 8.08604 22.1309 8.1094C21.8876 8.63303 21.3727 8.94643 20.961 9.32504C20.9678 9.65693 20.9026 9.98493 20.7372 10.275C21.0866 10.2662 21.436 10.2604 21.7854 10.2613C21.4613 10.4706 21.1197 10.6507 20.7887 10.8512C20.9707 10.8842 21.1576 10.9689 21.3425 10.9095C21.8389 10.7665 22.2759 10.4784 22.7285 10.2399C23.694 9.75328 24.1845 8.67196 25.1578 8.19505C25.6406 7.97606 26.1642 8.21257 26.6557 8.27681C26.3219 8.02765 25.9472 7.81352 25.5257 7.76388C24.7325 7.66364 23.9315 7.65585 23.1344 7.59356C23.4186 7.45146 23.6882 7.25388 23.6969 6.90447C23.4088 6.83732 23.1159 6.79157 22.821 6.76724C23.5276 6.52684 24.2751 6.54533 25.0089 6.49861C24.7267 6.28254 24.4055 6.13071 24.0823 5.98764C24.314 6.00613 24.5456 6.02657 24.7773 6.04603C24.7598 5.98958 24.7237 5.87668 24.7062 5.82023C24.4444 5.70441 24.1845 5.5847 23.9295 5.45622C24.3811 5.37155 24.8396 5.33651 25.298 5.32483C25.2532 5.1292 25.2337 4.91215 25.0848 4.76227C24.7374 4.38171 24.2897 4.10335 23.9617 3.70138C24.5748 3.71014 25.1724 3.91454 25.66 4.28633C26.1691 4.62309 26.4932 5.16521 27.0051 5.4971C26.7277 4.69803 25.9189 4.21041 25.734 3.37047C25.808 3.35587 25.9579 3.32667 26.0318 3.31304C25.6279 3.00257 25.2221 2.69209 24.7734 2.44779ZM19.4952 4.20166C19.0612 4.51895 18.5249 4.67565 18.1297 5.05036C17.4484 5.65185 17.0766 6.51321 16.8391 7.37262C16.3642 9.11481 16.3077 10.9787 16.6961 12.7442C16.9355 13.7788 17.2966 14.7784 17.6596 15.774C18.011 16.8339 18.5667 17.8082 18.9736 18.8457C19.5118 20.1538 19.8116 21.568 19.7726 22.9861C19.7629 24.2368 19.5624 25.5458 18.8402 26.598C18.1979 27.5528 17.389 28.4939 16.2659 28.8755C15.2361 29.2434 14.147 29.5928 13.0394 29.4293C11.3177 29.1412 9.58233 28.2856 8.65873 26.7459C7.85473 25.3969 7.36813 23.8903 6.87073 22.4089C6.39193 20.9276 5.92183 19.4375 5.63663 17.9046C5.57433 16.9186 5.84103 15.9512 6.08723 15.0061C6.43763 13.9715 6.71213 12.8951 7.26203 11.9432C7.20263 13.2464 7.03233 14.5555 7.19093 15.8587C7.33113 17.1347 7.64163 18.3883 7.71073 19.673C7.74573 20.1996 7.82943 20.7213 7.89663 21.2449C7.94823 21.6897 8.05422 22.1345 8.29082 22.5199C8.31802 21.7617 8.11363 21.0181 8.15063 20.2589C8.05043 18.9616 7.91123 17.6603 7.61923 16.3901C7.42653 15.6495 7.47713 14.8796 7.48493 14.1233C7.46543 13.5871 7.63573 13.0741 7.82943 12.5817C7.89463 12.6284 7.95893 12.6761 8.02213 12.7238C8.06013 12.5194 8.12633 12.3218 8.22563 12.1398C8.35693 12.8785 8.13993 13.6503 8.37063 14.3754C8.46693 14.7044 8.74533 14.9175 9.03343 15.0752C9.17453 15.7176 9.25333 16.3736 9.41693 17.0121C9.68743 18.1138 10.0826 19.2078 10.0553 20.3572C10.0836 21.2167 9.81203 22.041 9.67963 22.881C9.52593 23.6265 9.21443 24.3545 9.29323 25.1322C9.29523 25.322 9.38383 25.4904 9.48303 25.6461C9.52203 25.3113 9.51223 24.9745 9.52203 24.6397C9.53853 24.009 9.76143 23.4114 9.88793 22.7992C10.0573 21.9914 10.3123 21.1904 10.2977 20.3563C10.3025 18.5177 9.49673 16.8116 9.27383 15.0051C9.19883 14.0825 9.42173 13.1734 9.56583 12.2692C9.64363 11.8322 9.66313 11.3689 9.89773 10.9787C9.90353 11.5801 9.69333 12.1583 9.69913 12.7598C9.67283 14.174 10.1166 15.5404 10.5254 16.8777C10.6374 17.2174 10.7084 17.5912 10.9663 17.8578C10.9673 17.16 10.6529 16.5137 10.5167 15.8383C10.1994 14.9098 10.3434 13.9209 10.2938 12.9593C10.2441 12.0707 10.4807 11.2064 10.5692 10.3285C10.796 8.87927 11.415 7.49526 12.3027 6.33023C12.6384 5.85527 13.1903 5.62947 13.6974 5.39198C14.0838 5.21874 14.4429 4.98807 14.8478 4.86154C14.5266 5.26838 14.0565 5.50975 13.6867 5.865C12.9557 6.55117 12.3416 7.36094 11.8744 8.24858C11.344 9.2462 10.8135 10.273 10.6198 11.3981C10.4923 12.0084 10.5001 12.6362 10.5274 13.2552C10.615 14.3112 10.7201 15.376 11.0276 16.393C11.5435 17.8919 12.5596 19.2214 12.6929 20.8429C12.8185 20.7144 12.9431 20.586 13.0677 20.4575C13.017 20.7855 12.8438 21.1914 13.1562 21.4425C13.2604 21.3403 13.3645 21.2381 13.4686 21.1378C13.3275 21.7218 13.1222 22.3311 13.2847 22.9335C13.9816 22.1763 14.4468 21.2244 14.7329 20.2414C14.9695 19.4307 14.6522 18.5995 14.3164 17.8666C14.0273 17.1298 13.2682 16.7736 12.7698 16.2013C11.5883 14.8864 10.9255 13.0479 11.2145 11.2813C11.4841 9.80973 12.1839 8.45687 12.9976 7.2169C13.6292 6.40128 14.3621 5.64893 15.2196 5.07177C16.1763 4.4187 17.318 4.10725 18.4529 3.95152C18.8159 3.91064 19.2471 3.87366 19.4952 4.20166ZM8.77643 11.1003C8.80083 11.6901 8.77743 12.2809 8.71513 12.8678C8.67333 13.262 8.68203 13.6659 8.55843 14.0474C8.43873 13.0566 8.71713 12.0843 8.77643 11.1003ZM4.70523 20.4692C4.28573 20.1314 4.03173 19.6166 3.95573 19.0881C4.32173 19.4735 4.54073 19.9709 4.70523 20.4692Z" fill="#AF6F43"/>
<path d="M29.6389 4.19971C29.2904 3.85809 28.9128 3.53885 28.4729 3.32083C28.8164 3.69263 29.2155 4.00797 29.5688 4.37003C29.8656 4.66007 30.106 5.00267 30.4185 5.27616C30.2569 4.85473 29.9532 4.51408 29.6389 4.19971Z" fill="#AF6F43"/>
<path d="M32.47 6.94633C32.4107 6.94925 32.2939 6.95412 32.2355 6.95703C32.2442 7.08162 32.2462 7.20717 32.2472 7.33272C32.1236 7.39793 31.9922 7.45633 31.8793 7.54198C31.817 7.70354 31.7839 7.87484 31.743 8.04322C31.8744 8.13277 32.0038 8.22425 32.1333 8.31672C32.0768 8.70895 32.034 9.10508 32.0613 9.50218C32.3017 9.12162 32.4087 8.67099 32.6696 8.30309C32.8 8.07534 33.0861 8.14737 33.3022 8.13179C33.42 8.11525 33.5368 8.09383 33.6516 8.0695C33.2419 7.94005 32.8496 7.76194 32.4749 7.55269C32.579 7.54003 32.6832 7.52738 32.7864 7.5157C32.6783 7.35219 32.5781 7.18381 32.4973 7.00473L32.47 6.94633Z" fill="#AF6F43"/>
<path d="M14.0468 7.87971C13.8326 8.02765 13.6711 8.23593 13.5679 8.47439C13.3002 9.06128 13.0774 9.69683 13.126 10.3528C13.2925 10.0716 13.3839 9.75718 13.4725 9.44573C13.6263 8.90945 13.8998 8.41794 14.0468 7.87971Z" fill="#AF6F43"/>
<path d="M25.4528 8.39165C25.2844 8.43935 25.1004 8.45881 24.9486 8.5542C24.9194 8.66028 24.9009 8.76929 24.8795 8.8783C24.5875 8.98147 24.5009 9.44573 24.86 9.51775C24.9885 9.10994 25.153 8.70603 25.4528 8.39165Z" fill="#AF6F43"/>
<path d="M14.4546 9.51678C14.1032 9.96936 14.1275 10.5728 14.1519 11.1149C14.2512 12.4834 14.4828 13.845 14.8789 15.1609C15.1875 16.1673 15.3626 17.2067 15.5505 18.2413C15.8016 19.8803 15.7617 21.5943 15.2264 23.1759C15.1076 23.5078 14.9519 23.827 14.8565 24.1677C15.0434 24.0645 15.203 23.9175 15.2906 23.7209C15.7306 22.8557 15.9028 21.8843 16.0109 20.9276C16.1792 19.5095 15.9009 18.0895 15.5739 16.7142C15.3033 15.6251 14.8848 14.5691 14.7456 13.4498C14.6444 12.6732 14.5071 11.8984 14.4701 11.1149C14.4409 10.5825 14.5003 10.0492 14.4546 9.51678Z" fill="#AF6F43"/>
<path d="M35.2411 12.6118C34.5773 12.3539 33.8911 12.1563 33.2332 11.8838C33.4424 12.0162 33.641 12.1632 33.8405 12.3091C33.383 12.3267 32.8808 12.315 32.5188 12.644C32.7241 12.6644 32.9295 12.6809 33.1339 12.7033C33.6653 12.7471 34.1247 13.043 34.6055 13.2445C33.9349 13.3369 33.1485 13.2445 32.6093 13.7311C33.2186 13.7915 33.8259 13.6873 34.4342 13.6737C34.3748 13.7564 34.3135 13.8392 34.2522 13.9219C34.8615 13.8849 35.4717 13.8742 36.081 13.9112C35.7579 14.1302 35.4649 14.3968 35.278 14.7453C35.9263 14.8494 36.5793 14.9322 37.2197 15.0772C36.8226 15.3964 36.3944 15.6845 36.0645 16.0787C36.701 15.959 37.2373 15.5716 37.8534 15.3896C37.6373 15.8159 37.3443 16.1935 37.0485 16.5663C37.3297 16.4768 37.6276 16.4028 37.8611 16.213C38.0996 16.0261 38.3128 15.7828 38.6262 15.7283C38.9395 15.5531 39.216 15.3166 39.5459 15.1716C39.8632 15.0314 40.1961 14.9341 40.526 14.8319C39.8661 14.6158 39.2374 14.3209 38.6203 14.0056C37.5108 13.5014 36.3886 13.0235 35.2411 12.6118ZM39.8574 14.8543C39.4028 15.0129 38.9386 15.1424 38.4685 15.2456C38.5853 15.1181 38.6953 14.9818 38.8344 14.8796C39.1731 14.8368 39.5167 14.8679 39.8574 14.8543Z" fill="#AF6F43"/>
<path d="M24.9972 18.3932C24.4921 17.854 23.6813 17.963 23.0467 18.1547C22.5727 18.4467 22.0734 18.7124 21.6569 19.0861C22.0024 19.0054 22.3022 18.8068 22.637 18.7007C23.0273 18.6686 23.4146 18.7757 23.8059 18.7581C24.2341 18.7757 24.6235 18.5732 24.9972 18.3932Z" fill="#AF6F43"/>
<path d="M25.3544 19.0832C24.9855 18.9129 24.5787 19.0161 24.1981 19.0823C23.7241 19.1883 23.2492 19.2954 22.7878 19.4482C22.6107 19.491 22.5075 19.6429 22.4053 19.7811C22.9533 19.7285 23.4681 19.5232 24.0005 19.4015C24.4521 19.2954 24.9242 19.2672 25.3544 19.0832Z" fill="#AF6F43"/>
<path d="M24.9495 19.5767C24.6769 19.49 24.3811 19.4832 24.1183 19.6107C24.1202 19.9796 24.6653 19.891 24.9135 19.8287C24.9222 19.7665 24.9407 19.6399 24.9495 19.5767Z" fill="#AF6F43"/>
<path d="M17.7715 20.7339C17.7647 20.5879 17.7073 20.4536 17.6275 20.3339C17.5905 21.1855 17.5379 22.0362 17.464 22.8859C17.4377 23.1623 17.4338 23.4416 17.4669 23.719C17.5759 23.5535 17.6567 23.3705 17.6752 23.172C17.7881 22.3661 17.8543 21.5466 17.7715 20.7339Z" fill="#AF6F43"/>
<path d="M15.2059 21.3208C14.9217 22.0576 14.6989 22.8187 14.4779 23.5769C15.0317 22.9744 15.1855 22.1121 15.2059 21.3208Z" fill="#AF6F43"/>
</g>
<defs>
<clipPath id="clip0_104792_379">
<rect width="44" height="56" fill="white" transform="matrix(-1 0 0 1 44 0)"/>
</clipPath>
</defs>
</svg>
